{"title":"Arthur 3 War of the Two Worlds.2010.720p.BRRip.x264.Feel-Free","uid":6168258,"size":1972704565,"categoryP":"video","categoryS":"hd___movies","magnet":"?xt=urn:btih:a2264ead0c7dfeacaea1ba631f66cb551edf8a77&amp;dn=Arthur+3+War+of+the+Two+Worlds.2010.720p.BRRip.x264.Feel-Free&amp;tr=udp%3A%2F%2Ftracker.openbittorrent.com%3A80&amp;tr=udp%3A%2F%2Fopen.demonii.com%3A1337&amp;tr=udp%3A%2F%2Ftracker.coppersurfer.tk%3A6969&amp;tr=udp%3A%2F%2Fexodus.desync.com%3A6969","seeders":2,"leechers":0,"uploader":"neon","files":-1,"time":1297466739,"description":"Genre:Adventure | Family | Fantasy\nLanguage:English\n &lt;a href=&quot; http://www.imdb.com/title/tt0940656/&quot; rel=&quot;nofollow&quot; target=&quot;_NEW&quot;&gt; http://www.imdb.com/title/tt0940656/&lt;/a&gt;\nSource:BluRay.x264-BestHD\n\n\nFree.mp4\nFormat : MPEG-4\nFormat profile : Base Media\nCodec ID : isom\nFile size : 1.83 GiB\nDuration : 1h 41mn\nOverall bit rate : 2 593 Kbps\n\n\nVideo\nFormat settings, CABAC : Yes\nFormat settings, ReFrames : 3 frames\nCodec ID : avc1\nCodec ID/Info : Advanced Video Coding\nDuration : 1h 41mn\nBit rate mode : Variable\nBit rate : 2 159 Kbps\nMaximum bit rate : 16.6 Mbps\nWidth : 1 280 pixels\nHeight : 544 pixels\nDisplay aspect ratio : 2.35:1\nFrame rate mode : Constant\nFrame rate : 24.000 fps\nColor space : YUV\nChroma subsampling : 4:2:0\nBit depth : 8 bits\nScan type : Progressive\nBits/(Pixel*Frame) : 0.129\nStream size : 1.51 GiB (83%)\nWriting library : x264\n\n\nAudio\nID : 2\nFormat : AAC\nFormat/Info : Advanced Audio Codec\nFormat version : Version 4\nFormat profile : LC\nFormat settings, SBR : No\nCodec ID : 40\nDuration : 1h 41mn\nBit rate mode : Variable\nBit rate : 447 Kbps\nMaximum bit rate : 563 Kbps\nChannel(s) : 6 channels\nChannel positions : Front: L C R, Side: L R, LFE\nSampling rate : 48.0 KHz\nStream size : 323 MiB (17%)\n\n\nPlot:\nWith Maltazard now 7 feet tall and Arthur still 2 inches small, our hero must find a way to grow back to his normal size ans stop the Evil M once and for all, with the help of Selenia and Betameche.\n &lt;a href=&quot;\nhttp://rapidhdd.com/images/15247vlcsnap-00001.png&quot; rel=&quot;nofollow&quot; target=&quot;_NEW&quot;&gt;\nhttp://rapidhdd.com/images/15247vlcsnap-00001.png&lt;/a&gt; &lt;a href=&quot;\nhttp://www.rapidhdd.com/images/586640vlcsnap-00002.png&quot; rel=&quot;nofollow&quot; target=&quot;_NEW&quot;&gt;\nhttp://www.rapidhdd.com/images/586640vlcsnap-00002.png&lt;/a&gt; &lt;a href=&quot;\nhttp://www.rapidhdd.com/images/563912vlcsnap-00004.png&quot; rel=&quot;nofollow&quot; target=&quot;_NEW&quot;&gt;\nhttp://www.rapidhdd.com/images/563912vlcsnap-00004.png&lt;/a&gt; &lt;a href=&quot;\nhttp://www.rapidhdd.com/images/640506vlcsnap-00005.png&quot; rel=&quot;nofollow&quot; target=&quot;_NEW&quot;&gt;\nhttp://www.rapidhdd.com/images/640506vlcsnap-00005.png&lt;/a&gt;","torrent":{"xt":"urn:btih:a2264ead0c7dfeacaea1ba631f66cb551edf8a77","amp;dn":"Arthur+3+War+of+the+Two+Worlds.2010.720p.BRRip.x264.Feel-Free","amp;tr":["udp%3A%2F%2Ftracker.openbittorrent.com%3A80","udp%3A%2F%2Fopen.demonii.com%3A1337","udp%3A%2F%2Ftracker.coppersurfer.tk%3A6969","udp%3A%2F%2Fexodus.desync.com%3A6969"],"infoHash":"a2264ead0c7dfeacaea1ba631f66cb551edf8a77","infoHashBuffer":{"type":"Buffer","data":[162,38,78,173,12,125,254,172,174,161,186,99,31,102,203,85,30,223,138,119]},"announce":[],"urlList":[]}}